<svg width="17" height="18" viewBox="0 0 17 18" fill="none" xmlns="http://www.w3.org/2000/svg">
<g clip-path="url(#clip0_25_12476)">
<path d="M-0.17 11.35H1.81V13H-0.17V11.35ZM7.09258 7.39C7.09258 6.95 6.87258 6.73 6.43258 6.73H5.22258C4.78258 6.73 4.56258 6.95 4.56258 7.39V10.91C4.56258 11.35 4.78258 11.57 5.22258 11.57H6.43258C6.87258 11.57 7.09258 11.35 7.09258 10.91V7.39ZM9.07258 10.91C9.07258 11.68 8.89658 12.241 8.54458 12.593C8.19991 12.9377 7.64258 13.11 6.87258 13.11H4.78258C4.01258 13.11 3.45158 12.9377 3.09958 12.593C2.75491 12.241 2.58258 11.68 2.58258 10.91V7.39C2.58258 6.62 2.75491 6.06267 3.09958 5.718C3.45158 5.366 4.01258 5.19 4.78258 5.19H6.87258C7.64258 5.19 8.19991 5.366 8.54458 5.718C8.89658 6.06267 9.07258 6.62 9.07258 7.39V10.91ZM14.4617 7.39C14.4617 6.95 14.2417 6.73 13.8017 6.73H12.5917C12.1517 6.73 11.9317 6.95 11.9317 7.39V10.91C11.9317 11.35 12.1517 11.57 12.5917 11.57H13.8017C14.2417 11.57 14.4617 11.35 14.4617 10.91V7.39ZM16.4417 10.91C16.4417 11.68 16.2657 12.241 15.9137 12.593C15.5691 12.9377 15.0117 13.11 14.2417 13.11H12.1517C11.3817 13.11 10.8207 12.9377 10.4687 12.593C10.1241 12.241 9.95172 11.68 9.95172 10.91V7.39C9.95172 6.62 10.1241 6.06267 10.4687 5.718C10.8207 5.366 11.3817 5.19 12.1517 5.19H14.2417C15.0117 5.19 15.5691 5.366 15.9137 5.718C16.2657 6.06267 16.4417 6.62 16.4417 7.39V10.91Z" fill="black"/>
</g>
<defs>
<clipPath id="clip0_25_12476">
<rect width="17" height="17" fill="white" transform="translate(0 0.5)"/>
</clipPath>
</defs>
</svg>
