<?xml version="1.0" encoding="UTF-8"?>
<svg width="209" height="131" viewBox="0 0 209 153" fill="none" xmlns="http://www.w3.org/2000/svg">
<path d="M56.712 129.768C56.712 131.432 56.296 132.76 55.464 133.752C54.632 134.744 53.408 135.24 51.792 135.24C50.192 135.24 48.608 134.816 47.04 133.968V117.24H49.008V124.728C49.728 124.056 50.384 123.584 50.976 123.312C51.584 123.024 52.2 122.88 52.824 122.88C54.072 122.88 55.032 123.36 55.704 124.32C56.376 125.28 56.712 126.632 56.712 128.376V129.768ZM52.344 124.728C51.896 124.728 51.416 124.848 50.904 125.088C50.408 125.328 49.776 125.824 49.008 126.576V132.864C49.952 133.264 50.84 133.464 51.672 133.464C52.744 133.464 53.512 133.136 53.976 132.48C54.44 131.808 54.672 130.904 54.672 129.768V128.376C54.672 127.128 54.48 126.208 54.096 125.616C53.712 125.024 53.128 124.728 52.344 124.728ZM64.1758 136.2C63.6638 137.64 63.0318 138.688 62.2798 139.344C61.5438 140.016 60.5118 140.352 59.1838 140.352V138.408C59.7278 138.392 60.1918 138.32 60.5758 138.192C60.9758 138.064 61.3278 137.8 61.6318 137.4C61.9518 137.016 62.2558 136.44 62.5438 135.672L62.7838 135.072L58.5118 123.12H60.5278L62.5198 128.904L63.7438 132.6L64.9198 128.904L66.8638 123.12H68.8078L64.1758 136.2Z" fill="white"/>
<path d="M93.772 121.24C93.172 121.24 92.488 121.384 91.72 121.672C90.952 121.96 90.04 122.524 88.984 123.364V136H84.844V117.748H88.768V120.196C89.896 119.212 90.964 118.504 91.972 118.072C92.98 117.616 94 117.388 95.032 117.388C96.784 117.388 98.116 117.952 99.028 119.08C99.94 120.184 100.396 121.744 100.396 123.76V136H96.256V124.264C96.256 122.248 95.428 121.24 93.772 121.24ZM120.807 125.776V127.936C120.807 130.48 120.111 132.52 118.719 134.056C117.327 135.592 115.359 136.36 112.815 136.36C110.271 136.36 108.303 135.592 106.911 134.056C105.519 132.52 104.823 130.48 104.823 127.936V125.776C104.823 123.232 105.507 121.204 106.875 119.692C108.267 118.156 110.247 117.388 112.815 117.388C115.383 117.388 117.351 118.156 118.719 119.692C120.111 121.204 120.807 123.232 120.807 125.776ZM116.559 125.776C116.559 124.312 116.235 123.172 115.587 122.356C114.939 121.516 114.015 121.096 112.815 121.096C111.615 121.096 110.691 121.516 110.043 122.356C109.395 123.172 109.071 124.312 109.071 125.776V127.936C109.071 129.4 109.395 130.552 110.043 131.392C110.691 132.232 111.615 132.652 112.815 132.652C114.015 132.652 114.939 132.232 115.587 131.392C116.235 130.552 116.559 129.4 116.559 127.936V125.776ZM139.606 117.748L133.126 136H129.346L122.866 117.748H127.042L130.174 126.856L131.362 130.636L132.514 126.856L135.502 117.748H139.606ZM156.887 136.18C155.663 136.18 154.679 135.928 153.935 135.424C153.215 134.92 152.687 134.296 152.351 133.552C151.319 134.512 150.323 135.22 149.363 135.676C148.403 136.132 147.371 136.36 146.267 136.36C144.659 136.36 143.471 135.844 142.703 134.812C141.959 133.78 141.587 132.472 141.587 130.888C141.587 129.832 141.779 128.908 142.163 128.116C142.571 127.3 143.231 126.664 144.143 126.208C145.055 125.752 146.303 125.524 147.887 125.524C148.511 125.524 149.159 125.572 149.831 125.668C150.503 125.74 151.175 125.836 151.847 125.956V123.832C151.847 122.824 151.571 122.14 151.019 121.78C150.467 121.396 149.723 121.204 148.787 121.204C148.067 121.204 147.275 121.3 146.411 121.492C145.571 121.684 144.659 121.984 143.675 122.392L142.487 118.864C144.911 117.88 147.107 117.388 149.075 117.388C150.851 117.388 152.219 117.688 153.179 118.288C154.163 118.888 154.847 119.68 155.231 120.664C155.615 121.648 155.807 122.704 155.807 123.832V130.852C155.807 131.212 155.903 131.56 156.095 131.896C156.311 132.208 156.719 132.364 157.319 132.364H157.715V136.18H156.887ZM145.583 130.816C145.583 131.464 145.727 131.98 146.015 132.364C146.303 132.724 146.723 132.904 147.275 132.904C147.827 132.904 148.451 132.76 149.147 132.472C149.843 132.184 150.743 131.512 151.847 130.456V128.908C150.599 128.692 149.375 128.584 148.175 128.584C147.239 128.584 146.567 128.776 146.159 129.16C145.775 129.544 145.583 130.096 145.583 130.816ZM171.605 121.528C170.477 121.528 169.397 121.708 168.365 122.068C167.357 122.404 166.385 122.956 165.449 123.724V136H161.309V117.748H165.233V120.556C166.457 119.404 167.549 118.588 168.509 118.108C169.469 117.628 170.501 117.388 171.605 117.388V121.528ZM179.479 114.292H175.123V110.008H179.479V114.292ZM179.371 136H175.231V117.748H179.371V136Z" fill="white"/>
<path d="M47.136 42.824C47.584 43.528 47.968 44.488 48.288 45.704C48.672 46.856 48.864 48.072 48.864 49.352C48.864 51.848 48.32 53.64 47.232 54.728C46.208 55.752 44.8 56.264 43.008 56.264H22.848V67.112H43.872C44.384 67.816 44.8 68.744 45.12 69.896C45.504 71.048 45.696 72.264 45.696 73.544C45.696 75.976 45.152 77.736 44.064 78.824C43.04 79.848 41.632 80.36 39.84 80.36H23.04V100.616C22.336 100.808 21.216 101 19.68 101.192C18.208 101.384 16.736 101.48 15.264 101.48C13.792 101.48 12.48 101.352 11.328 101.096C10.24 100.904 9.312 100.52 8.544 99.944C7.776 99.368 7.2 98.568 6.816 97.544C6.432 96.52 6.24 95.176 6.24 93.512V51.752C6.24 49 7.04 46.824 8.64 45.224C10.24 43.624 12.416 42.824 15.168 42.824H47.136ZM74.04 100.616C73.336 100.808 72.216 101 70.68 101.192C69.208 101.384 67.736 101.48 66.264 101.48C64.792 101.48 63.48 101.352 62.328 101.096C61.24 100.904 60.312 100.52 59.544 99.944C58.776 99.368 58.2 98.568 57.816 97.544C57.432 96.52 57.24 95.176 57.24 93.512V42.824C57.944 42.696 59.064 42.536 60.6 42.344C62.136 42.088 63.608 41.96 65.016 41.96C66.488 41.96 67.768 42.088 68.856 42.344C70.008 42.536 70.968 42.92 71.736 43.496C72.504 44.072 73.08 44.872 73.464 45.896C73.848 46.92 74.04 48.264 74.04 49.928V100.616ZM139.194 98.984C138.298 99.88 136.986 100.552 135.258 101C133.594 101.512 131.578 101.768 129.21 101.768C126.842 101.768 124.602 101.416 122.49 100.712C120.378 100.008 118.65 98.312 117.306 95.624L107.802 76.232C106.842 74.248 105.978 72.392 105.21 70.664C104.442 68.872 103.61 66.824 102.714 64.52L102.138 64.616C102.394 68.072 102.522 71.592 102.522 75.176C102.586 78.76 102.618 82.28 102.618 85.736V100.616C101.914 100.808 100.826 101 99.354 101.192C97.946 101.384 96.538 101.48 95.13 101.48C93.722 101.48 92.474 101.384 91.386 101.192C90.298 101 89.402 100.616 88.698 100.04C87.994 99.464 87.45 98.696 87.066 97.736C86.682 96.712 86.49 95.4 86.49 93.8V45.8C87.386 44.52 88.762 43.56 90.618 42.92C92.474 42.28 94.458 41.96 96.57 41.96C98.938 41.96 101.178 42.344 103.29 43.112C105.466 43.816 107.194 45.48 108.474 48.104L118.074 67.496C119.034 69.48 119.898 71.368 120.666 73.16C121.434 74.888 122.266 76.904 123.162 79.208L123.642 79.112C123.386 75.656 123.226 72.2 123.162 68.744C123.098 65.288 123.066 61.832 123.066 58.376V42.824C123.77 42.632 124.826 42.44 126.234 42.248C127.706 42.056 129.146 41.96 130.554 41.96C133.37 41.96 135.514 42.472 136.986 43.496C138.458 44.456 139.194 46.504 139.194 49.64V98.984ZM148.958 56.264C148.51 55.56 148.094 54.6 147.71 53.384C147.326 52.168 147.134 50.888 147.134 49.544C147.134 47.048 147.678 45.256 148.766 44.168C149.918 43.08 151.39 42.536 153.182 42.536H195.038C195.486 43.24 195.902 44.2 196.286 45.416C196.67 46.632 196.862 47.912 196.862 49.256C196.862 51.752 196.286 53.544 195.134 54.632C194.046 55.72 192.606 56.264 190.814 56.264H180.158V100.616C179.454 100.808 178.334 101 176.798 101.192C175.326 101.384 173.854 101.48 172.382 101.48C170.91 101.48 169.598 101.352 168.446 101.096C167.358 100.904 166.43 100.52 165.662 99.944C164.894 99.368 164.318 98.568 163.934 97.544C163.55 96.52 163.358 95.176 163.358 93.512V56.264H148.958Z" fill="#B5B5B5"/>
</svg>
