<svg width="20" height="15" viewBox="0 0 20 15" fill="none" xmlns="http://www.w3.org/2000/svg">
<path d="M0.304688 6.1875H1.48438C1.70833 6.1875 1.88021 6.13802 2 6.03906C2.125 5.9349 2.21615 5.82031 2.27344 5.69531C2.33594 5.54948 2.3724 5.38281 2.38281 5.19531V2.4375C2.38281 2.11979 2.44271 1.82552 2.5625 1.55469C2.68229 1.27865 2.84375 1.04167 3.04688 0.84375C3.25521 0.640625 3.49479 0.484375 3.76562 0.375C4.04167 0.260417 4.33333 0.203125 4.64062 0.203125H6.88281V2.4375H4.64062V5.24219C4.64062 5.4349 4.6224 5.61198 4.58594 5.77344C4.54948 5.9349 4.5 6.08333 4.4375 6.21875C4.375 6.34896 4.30469 6.46875 4.22656 6.57812C4.14844 6.68229 4.06771 6.77344 3.98438 6.85156C3.79167 7.04427 3.57292 7.19531 3.32812 7.30469C3.57292 7.40885 3.79167 7.5625 3.98438 7.76562C4.06771 7.85417 4.14844 7.95573 4.22656 8.07031C4.30469 8.1849 4.375 8.31771 4.4375 8.46875C4.5 8.61458 4.54948 8.78125 4.58594 8.96875C4.6224 9.15104 4.64062 9.35417 4.64062 9.57812V12.3594H6.88281V14.6016H4.64062C4.34896 14.6016 4.0651 14.5443 3.78906 14.4297C3.51823 14.3151 3.27865 14.1562 3.07031 13.9531C2.86198 13.7552 2.69531 13.5182 2.57031 13.2422C2.44531 12.9714 2.38281 12.6771 2.38281 12.3594V9.57812C2.38802 9.29167 2.34375 9.07031 2.25 8.91406C2.16146 8.75781 2.0599 8.64323 1.94531 8.57031C1.8099 8.48698 1.65625 8.4375 1.48438 8.42188H0.304688V6.1875ZM19.125 8.42188H17.9375C17.7656 8.4375 17.612 8.48698 17.4766 8.57031C17.4193 8.60677 17.362 8.65365 17.3047 8.71094C17.2526 8.76302 17.2057 8.83073 17.1641 8.91406C17.1224 8.99219 17.0885 9.08594 17.0625 9.19531C17.0417 9.30469 17.0339 9.43229 17.0391 9.57812V12.3594C17.0391 12.6771 16.9766 12.9714 16.8516 13.2422C16.7266 13.5182 16.5599 13.7552 16.3516 13.9531C16.1432 14.1562 15.901 14.3151 15.625 14.4297C15.3542 14.5443 15.0729 14.6016 14.7812 14.6016H12.5469V12.3594H14.7812V9.57812C14.7812 9.35417 14.7995 9.15104 14.8359 8.96875C14.8724 8.78125 14.9219 8.61458 14.9844 8.46875C15.0469 8.31771 15.1172 8.1849 15.1953 8.07031C15.2734 7.95573 15.3542 7.85417 15.4375 7.76562C15.6302 7.5625 15.849 7.40885 16.0938 7.30469C15.849 7.19531 15.6302 7.04427 15.4375 6.85156C15.3542 6.77344 15.2734 6.68229 15.1953 6.57812C15.1172 6.46875 15.0469 6.34896 14.9844 6.21875C14.9219 6.08333 14.8724 5.9349 14.8359 5.77344C14.7995 5.61198 14.7812 5.4349 14.7812 5.24219V2.4375H12.5469V0.203125H14.7812C15.0885 0.203125 15.3776 0.260417 15.6484 0.375C15.9245 0.484375 16.1641 0.640625 16.3672 0.84375C16.5755 1.04167 16.7396 1.27865 16.8594 1.55469C16.9792 1.82552 17.0391 2.11979 17.0391 2.4375V5.19531C17.0495 5.38281 17.0859 5.54948 17.1484 5.69531C17.2057 5.82031 17.2943 5.9349 17.4141 6.03906C17.5339 6.13802 17.7083 6.1875 17.9375 6.1875H19.125V8.42188Z" fill="black"/>
</svg>
