<svg width="44" height="44" viewBox="0 0 44 44" fill="none" xmlns="http://www.w3.org/2000/svg">
<g clip-path="url(#clip0_8_5950)">
<path d="M34.5027 23.448L34.4661 23.7275L34.6863 23.9035L38.3455 26.8286L38.3517 26.8335L38.3579 26.8382C38.4872 26.9351 38.5472 27.1186 38.4381 27.3264L34.9462 33.4666L34.946 33.4665L34.9402 33.4774C34.8465 33.6521 34.6626 33.7164 34.4865 33.6544L30.1447 31.8809L29.8749 31.7707L29.646 31.9512C28.7872 32.6285 27.8436 33.1966 26.8153 33.622L26.5507 33.7314L26.5112 34.015L25.8558 38.7174L25.8558 38.7174L25.8548 38.7254C25.8312 38.9169 25.6819 39.0455 25.4954 39.0455H18.5046C18.3397 39.0455 18.1767 38.9343 18.1235 38.6994L17.4706 34.015L17.4311 33.7314L17.1665 33.622C16.1407 33.1977 15.2139 32.6299 14.3319 31.9482L14.1039 31.7719L13.8371 31.8809L9.50611 33.65C9.30351 33.7093 9.12571 33.6342 9.0416 33.4774L9.04174 33.4774L9.03562 33.4666L5.54343 27.3258C5.45509 27.1578 5.50821 26.9299 5.63423 26.8302L5.63436 26.8301L9.33001 23.905L9.5607 23.7224L9.51312 23.4321C9.42765 22.9106 9.39227 22.3279 9.39227 21.7727C9.39227 21.2372 9.46058 20.6561 9.54953 20.1133L9.59712 19.823L9.36643 19.6404L5.67077 16.7153L5.66079 16.7074L5.65042 16.7C5.52399 16.61 5.46622 16.4223 5.57759 16.2236C5.5777 16.2234 5.5778 16.2232 5.5779 16.223L9.05438 10.0779L9.05449 10.0779L9.05981 10.068C9.15348 9.89338 9.33744 9.82908 9.51348 9.89104L13.8553 11.6645L14.1211 11.7731L14.3489 11.5982C15.2148 10.9333 16.1601 10.3473 17.1847 9.92344L17.4493 9.814L17.4888 9.53043L18.1432 4.8349C18.1815 4.61358 18.3355 4.5 18.5046 4.5H25.4954C25.677 4.5 25.8387 4.62638 25.875 4.83507L26.5294 9.53043L26.5689 9.814L26.8335 9.92344C27.8593 10.3478 28.7861 10.9156 29.6681 11.5973L29.8961 11.7735L30.1629 11.6645L34.4939 9.89546C34.6965 9.83619 34.8743 9.91121 34.9584 10.068L34.9583 10.0681L34.9644 10.0788L38.4566 16.2197C38.5449 16.3877 38.4918 16.6156 38.3658 16.7152L38.3656 16.7153L34.67 19.6404L34.4393 19.823L34.4869 20.1133C34.5724 20.6352 34.6077 21.1995 34.6077 21.7727C34.6077 22.3635 34.5725 22.9156 34.5027 23.448ZM14.9461 21.7727C14.9461 25.7066 18.1114 28.9375 22 28.9375C25.8886 28.9375 29.0539 25.7066 29.0539 21.7727C29.0539 17.8389 25.8886 14.608 22 14.608C18.1114 14.608 14.9461 17.8389 14.9461 21.7727Z" fill="black" fill-opacity="0.25" stroke="black"/>
<mask id="path-2-outside-1_8_5950" maskUnits="userSpaceOnUse" x="18" y="25" width="26" height="21" fill="black">
<rect fill="white" x="18" y="25" width="26" height="21"/>
<path d="M19.3809 33.4844H20.8555C21.1354 33.4844 21.3503 33.4225 21.5 33.2988C21.6562 33.1686 21.7702 33.0254 21.8418 32.8691C21.9199 32.6868 21.9655 32.4785 21.9785 32.2441V28.7969C21.9785 28.3997 22.0534 28.0319 22.2031 27.6934C22.3529 27.3483 22.5547 27.0521 22.8086 26.8047C23.069 26.5508 23.3685 26.3555 23.707 26.2188C24.0521 26.0755 24.4167 26.0039 24.8008 26.0039H27.6035V28.7969H24.8008V32.3027C24.8008 32.5436 24.778 32.765 24.7324 32.9668C24.6868 33.1686 24.625 33.3542 24.5469 33.5234C24.4688 33.6862 24.3809 33.8359 24.2832 33.9727C24.1855 34.1029 24.0846 34.2168 23.9805 34.3145C23.7396 34.5553 23.4661 34.7441 23.1602 34.8809C23.4661 35.0111 23.7396 35.2031 23.9805 35.457C24.0846 35.5677 24.1855 35.6947 24.2832 35.8379C24.3809 35.9811 24.4688 36.1471 24.5469 36.3359C24.625 36.5182 24.6868 36.7266 24.7324 36.9609C24.778 37.1888 24.8008 37.4427 24.8008 37.7227V41.1992H27.6035V44.002H24.8008C24.4362 44.002 24.0814 43.9303 23.7363 43.7871C23.3978 43.6439 23.0983 43.4453 22.8379 43.1914C22.5775 42.944 22.3691 42.6478 22.2129 42.3027C22.0566 41.9642 21.9785 41.5964 21.9785 41.1992V37.7227C21.985 37.3646 21.9297 37.0879 21.8125 36.8926C21.7018 36.6973 21.5749 36.554 21.4316 36.4629C21.2624 36.3587 21.0703 36.2969 20.8555 36.2773H19.3809V33.4844ZM42.9062 36.2773H41.4219C41.207 36.2969 41.015 36.3587 40.8457 36.4629C40.7741 36.5085 40.7025 36.5671 40.6309 36.6387C40.5658 36.7038 40.5072 36.7884 40.4551 36.8926C40.403 36.9902 40.3607 37.1074 40.3281 37.2441C40.3021 37.3809 40.2923 37.5404 40.2988 37.7227V41.1992C40.2988 41.5964 40.2207 41.9642 40.0645 42.3027C39.9082 42.6478 39.6999 42.944 39.4395 43.1914C39.179 43.4453 38.8763 43.6439 38.5312 43.7871C38.1927 43.9303 37.8411 44.002 37.4766 44.002H34.6836V41.1992H37.4766V37.7227C37.4766 37.4427 37.4993 37.1888 37.5449 36.9609C37.5905 36.7266 37.6523 36.5182 37.7305 36.3359C37.8086 36.1471 37.8965 35.9811 37.9941 35.8379C38.0918 35.6947 38.1927 35.5677 38.2969 35.457C38.5378 35.2031 38.8112 35.0111 39.1172 34.8809C38.8112 34.7441 38.5378 34.5553 38.2969 34.3145C38.1927 34.2168 38.0918 34.1029 37.9941 33.9727C37.8965 33.8359 37.8086 33.6862 37.7305 33.5234C37.6523 33.3542 37.5905 33.1686 37.5449 32.9668C37.4993 32.765 37.4766 32.5436 37.4766 32.3027V28.7969H34.6836V26.0039H37.4766C37.8607 26.0039 38.222 26.0755 38.5605 26.2188C38.9056 26.3555 39.2051 26.5508 39.459 26.8047C39.7194 27.0521 39.9245 27.3483 40.0742 27.6934C40.224 28.0319 40.2988 28.3997 40.2988 28.7969V32.2441C40.3118 32.4785 40.3574 32.6868 40.4355 32.8691C40.5072 33.0254 40.6178 33.1686 40.7676 33.2988C40.9173 33.4225 41.1354 33.4844 41.4219 33.4844H42.9062V36.2773Z"/>
</mask>
<path d="M19.3809 33.4844H20.8555C21.1354 33.4844 21.3503 33.4225 21.5 33.2988C21.6562 33.1686 21.7702 33.0254 21.8418 32.8691C21.9199 32.6868 21.9655 32.4785 21.9785 32.2441V28.7969C21.9785 28.3997 22.0534 28.0319 22.2031 27.6934C22.3529 27.3483 22.5547 27.0521 22.8086 26.8047C23.069 26.5508 23.3685 26.3555 23.707 26.2188C24.0521 26.0755 24.4167 26.0039 24.8008 26.0039H27.6035V28.7969H24.8008V32.3027C24.8008 32.5436 24.778 32.765 24.7324 32.9668C24.6868 33.1686 24.625 33.3542 24.5469 33.5234C24.4688 33.6862 24.3809 33.8359 24.2832 33.9727C24.1855 34.1029 24.0846 34.2168 23.9805 34.3145C23.7396 34.5553 23.4661 34.7441 23.1602 34.8809C23.4661 35.0111 23.7396 35.2031 23.9805 35.457C24.0846 35.5677 24.1855 35.6947 24.2832 35.8379C24.3809 35.9811 24.4688 36.1471 24.5469 36.3359C24.625 36.5182 24.6868 36.7266 24.7324 36.9609C24.778 37.1888 24.8008 37.4427 24.8008 37.7227V41.1992H27.6035V44.002H24.8008C24.4362 44.002 24.0814 43.9303 23.7363 43.7871C23.3978 43.6439 23.0983 43.4453 22.8379 43.1914C22.5775 42.944 22.3691 42.6478 22.2129 42.3027C22.0566 41.9642 21.9785 41.5964 21.9785 41.1992V37.7227C21.985 37.3646 21.9297 37.0879 21.8125 36.8926C21.7018 36.6973 21.5749 36.554 21.4316 36.4629C21.2624 36.3587 21.0703 36.2969 20.8555 36.2773H19.3809V33.4844ZM42.9062 36.2773H41.4219C41.207 36.2969 41.015 36.3587 40.8457 36.4629C40.7741 36.5085 40.7025 36.5671 40.6309 36.6387C40.5658 36.7038 40.5072 36.7884 40.4551 36.8926C40.403 36.9902 40.3607 37.1074 40.3281 37.2441C40.3021 37.3809 40.2923 37.5404 40.2988 37.7227V41.1992C40.2988 41.5964 40.2207 41.9642 40.0645 42.3027C39.9082 42.6478 39.6999 42.944 39.4395 43.1914C39.179 43.4453 38.8763 43.6439 38.5312 43.7871C38.1927 43.9303 37.8411 44.002 37.4766 44.002H34.6836V41.1992H37.4766V37.7227C37.4766 37.4427 37.4993 37.1888 37.5449 36.9609C37.5905 36.7266 37.6523 36.5182 37.7305 36.3359C37.8086 36.1471 37.8965 35.9811 37.9941 35.8379C38.0918 35.6947 38.1927 35.5677 38.2969 35.457C38.5378 35.2031 38.8112 35.0111 39.1172 34.8809C38.8112 34.7441 38.5378 34.5553 38.2969 34.3145C38.1927 34.2168 38.0918 34.1029 37.9941 33.9727C37.8965 33.8359 37.8086 33.6862 37.7305 33.5234C37.6523 33.3542 37.5905 33.1686 37.5449 32.9668C37.4993 32.765 37.4766 32.5436 37.4766 32.3027V28.7969H34.6836V26.0039H37.4766C37.8607 26.0039 38.222 26.0755 38.5605 26.2188C38.9056 26.3555 39.2051 26.5508 39.459 26.8047C39.7194 27.0521 39.9245 27.3483 40.0742 27.6934C40.224 28.0319 40.2988 28.3997 40.2988 28.7969V32.2441C40.3118 32.4785 40.3574 32.6868 40.4355 32.8691C40.5072 33.0254 40.6178 33.1686 40.7676 33.2988C40.9173 33.4225 41.1354 33.4844 41.4219 33.4844H42.9062V36.2773Z" fill="black"/>
<path d="M19.3809 33.4844V32.4844H18.3809V33.4844H19.3809ZM21.5 33.2988L22.1369 34.0698L22.1402 34.067L21.5 33.2988ZM21.8418 32.8691L22.7509 33.2858L22.756 33.2745L22.7609 33.2631L21.8418 32.8691ZM21.9785 32.2441L22.977 32.2996L22.9785 32.2719V32.2441H21.9785ZM22.2031 27.6934L23.1177 28.0979L23.1205 28.0915L22.2031 27.6934ZM22.8086 26.8047L23.5065 27.5209L23.5067 27.5207L22.8086 26.8047ZM23.707 26.2188L24.0815 27.146L24.0904 27.1423L23.707 26.2188ZM27.6035 26.0039H28.6035V25.0039H27.6035V26.0039ZM27.6035 28.7969V29.7969H28.6035V28.7969H27.6035ZM24.8008 28.7969V27.7969H23.8008V28.7969H24.8008ZM24.5469 33.5234L25.4484 33.9562L25.4517 33.9494L25.4548 33.9425L24.5469 33.5234ZM24.2832 33.9727L25.0832 34.5727L25.0902 34.5634L25.0969 34.5539L24.2832 33.9727ZM23.9805 34.3145L23.2965 33.5849L23.2848 33.5959L23.2734 33.6073L23.9805 34.3145ZM23.1602 34.8809L22.7522 33.9679L20.6588 34.9032L22.7686 35.801L23.1602 34.8809ZM23.9805 35.457L24.7087 34.7717L24.7059 34.7688L23.9805 35.457ZM24.5469 36.3359L23.6228 36.7183L23.6277 36.7299L24.5469 36.3359ZM24.7324 36.9609L23.7508 37.1518L23.7518 37.1571L24.7324 36.9609ZM24.8008 41.1992H23.8008V42.1992H24.8008V41.1992ZM27.6035 41.1992H28.6035V40.1992H27.6035V41.1992ZM27.6035 44.002V45.002H28.6035V44.002H27.6035ZM23.7363 43.7871L23.3467 44.7081L23.353 44.7107L23.7363 43.7871ZM22.8379 43.1914L23.536 42.4753L23.5266 42.4664L22.8379 43.1914ZM22.2129 42.3027L23.1239 41.8902L23.1209 41.8837L22.2129 42.3027ZM21.9785 37.7227L20.9787 37.7045L20.9785 37.7136V37.7227H21.9785ZM21.8125 36.8926L20.9425 37.3856L20.9486 37.3964L20.955 37.4071L21.8125 36.8926ZM21.4316 36.4629L21.9685 35.6192L21.9622 35.6152L21.9557 35.6112L21.4316 36.4629ZM20.8555 36.2773L20.946 35.2815L20.9008 35.2773H20.8555V36.2773ZM19.3809 36.2773H18.3809V37.2773H19.3809V36.2773ZM19.3809 34.4844H20.8555V32.4844H19.3809V34.4844ZM20.8555 34.4844C21.2677 34.4844 21.7434 34.3948 22.1369 34.0698L20.8631 32.5279C20.8851 32.5097 20.9056 32.4971 20.9219 32.4888C20.9379 32.4806 20.9482 32.4775 20.9499 32.477C20.9515 32.4766 20.9452 32.4785 20.9292 32.4805C20.9131 32.4825 20.8889 32.4844 20.8555 32.4844V34.4844ZM22.1402 34.067C22.3903 33.8586 22.6066 33.6005 22.7509 33.2858L20.9327 32.4525C20.9327 32.4525 20.9299 32.4588 20.92 32.4712C20.9098 32.484 20.8913 32.5043 20.8598 32.5306L22.1402 34.067ZM22.7609 33.2631C22.8926 32.9558 22.9586 32.6297 22.977 32.2996L20.9801 32.1887C20.9724 32.3274 20.9472 32.4179 20.9227 32.4752L22.7609 33.2631ZM22.9785 32.2441V28.7969H20.9785V32.2441H22.9785ZM22.9785 28.7969C22.9785 28.5288 23.0283 28.2999 23.1177 28.0979L21.2886 27.2889C21.0785 27.7639 20.9785 28.2707 20.9785 28.7969H22.9785ZM23.1205 28.0915C23.2216 27.8583 23.3513 27.6721 23.5065 27.5209L22.1107 26.0885C21.7581 26.4321 21.4841 26.8383 21.2858 27.2953L23.1205 28.0915ZM23.5067 27.5207C23.6736 27.3579 23.8631 27.2342 24.0815 27.146L23.3326 25.2915C22.8739 25.4767 22.4644 25.7436 22.1105 26.0887L23.5067 27.5207ZM24.0904 27.1423C24.3105 27.051 24.5445 27.0039 24.8008 27.0039V25.0039C24.2889 25.0039 23.7937 25.1001 23.3237 25.2952L24.0904 27.1423ZM24.8008 27.0039H27.6035V25.0039H24.8008V27.0039ZM26.6035 26.0039V28.7969H28.6035V26.0039H26.6035ZM27.6035 27.7969H24.8008V29.7969H27.6035V27.7969ZM23.8008 28.7969V32.3027H25.8008V28.7969H23.8008ZM23.8008 32.3027C23.8008 32.4813 23.7838 32.6276 23.757 32.7465L25.7079 33.1871C25.7722 32.9023 25.8008 32.6059 25.8008 32.3027H23.8008ZM23.757 32.7465C23.7252 32.8873 23.6846 33.0053 23.6389 33.1044L25.4548 33.9425C25.5654 33.703 25.6485 33.45 25.7079 33.1871L23.757 32.7465ZM23.6454 33.0907C23.5903 33.2053 23.5313 33.3049 23.4695 33.3914L25.0969 34.5539C25.2305 34.367 25.3472 34.167 25.4484 33.9562L23.6454 33.0907ZM23.4832 33.3727C23.4157 33.4627 23.3529 33.532 23.2965 33.5849L24.6644 35.044C24.8163 34.9016 24.9554 34.743 25.0832 34.5727L23.4832 33.3727ZM23.2734 33.6073C23.1173 33.7634 22.9449 33.8818 22.7522 33.9679L23.5681 35.7939C23.9874 35.6065 24.3618 35.3473 24.6876 35.0216L23.2734 33.6073ZM22.7686 35.801C22.942 35.8748 23.1033 35.9854 23.255 36.1453L24.7059 34.7688C24.3758 34.4208 23.9903 34.1473 23.5517 33.9607L22.7686 35.801ZM23.2523 36.1424C23.3161 36.2102 23.3847 36.2953 23.457 36.4012L25.1094 35.2746C24.9863 35.094 24.8532 34.9253 24.7087 34.7717L23.2523 36.1424ZM23.457 36.4012C23.5098 36.4786 23.5665 36.5821 23.6229 36.7183L25.4709 35.9536C25.371 35.7122 25.252 35.4836 25.1094 35.2746L23.457 36.4012ZM23.6277 36.7299C23.6729 36.8353 23.7161 36.9735 23.7508 37.1518L25.714 36.7701C25.6576 36.4796 25.5771 36.2012 25.466 35.942L23.6277 36.7299ZM23.7518 37.1571C23.7822 37.3088 23.8008 37.4957 23.8008 37.7227H25.8008C25.8008 37.3897 25.7738 37.0688 25.713 36.7648L23.7518 37.1571ZM23.8008 37.7227V41.1992H25.8008V37.7227H23.8008ZM24.8008 42.1992H27.6035V40.1992H24.8008V42.1992ZM26.6035 41.1992V44.002H28.6035V41.1992H26.6035ZM27.6035 43.002H24.8008V45.002H27.6035V43.002ZM24.8008 43.002C24.5711 43.002 24.3463 42.9576 24.1197 42.8635L23.353 44.7107C23.8164 44.9031 24.3013 45.002 24.8008 45.002V43.002ZM24.126 42.8661C23.9009 42.7709 23.7063 42.6414 23.536 42.4754L22.1398 43.9074C22.4903 44.2492 22.8947 44.5169 23.3467 44.7081L24.126 42.8661ZM23.5266 42.4664C23.3648 42.3127 23.2298 42.1243 23.1238 41.8902L21.3019 42.7152C21.5085 43.1713 21.7902 43.5754 22.1491 43.9164L23.5266 42.4664ZM23.1209 41.8837C23.0291 41.685 22.9785 41.4613 22.9785 41.1992H20.9785C20.9785 41.7315 21.0841 42.2434 21.3049 42.7218L23.1209 41.8837ZM22.9785 41.1992V37.7227H20.9785V41.1992H22.9785ZM22.9784 37.7408C22.9865 37.2935 22.924 36.8014 22.67 36.3781L20.955 37.4071C20.9425 37.3861 20.951 37.3909 20.9613 37.4427C20.9717 37.4946 20.981 37.5791 20.9787 37.7045L22.9784 37.7408ZM22.6825 36.3996C22.5162 36.1061 22.2871 35.822 21.9685 35.6192L20.8948 37.3066C20.8626 37.2861 20.8874 37.2885 20.9425 37.3856L22.6825 36.3996ZM21.9557 35.6112C21.644 35.4194 21.3012 35.3137 20.946 35.2815L20.7649 37.2732C20.8394 37.28 20.8807 37.298 20.9075 37.3145L21.9557 35.6112ZM20.8555 35.2773H19.3809V37.2773H20.8555V35.2773ZM20.3809 36.2773V33.4844H18.3809V36.2773H20.3809ZM42.9062 36.2773V37.2773H43.9062V36.2773H42.9062ZM41.4219 36.2773V35.2773H41.3765L41.3313 35.2815L41.4219 36.2773ZM40.8457 36.4629L40.3216 35.6112L40.3152 35.6152L40.3088 35.6192L40.8457 36.4629ZM40.4551 36.8926L41.3374 37.3632L41.3436 37.3516L41.3495 37.3398L40.4551 36.8926ZM40.3281 37.2441L39.3553 37.0125L39.35 37.0347L39.3458 37.057L40.3281 37.2441ZM40.2988 37.7227H41.2988V37.7048L41.2982 37.687L40.2988 37.7227ZM40.0645 42.3027L39.1565 41.8837L39.1535 41.8902L40.0645 42.3027ZM39.4395 43.1914L38.7506 42.4663L38.7414 42.4754L39.4395 43.1914ZM38.5312 43.7871L38.1479 42.8635L38.1416 42.8661L38.5312 43.7871ZM34.6836 44.002H33.6836V45.002H34.6836V44.002ZM34.6836 41.1992V40.1992H33.6836V41.1992H34.6836ZM37.4766 41.1992V42.1992H38.4766V41.1992H37.4766ZM37.5449 36.9609L38.5255 37.1571L38.5265 37.1518L37.5449 36.9609ZM37.7305 36.3359L38.6497 36.7299L38.6545 36.7183L37.7305 36.3359ZM38.2969 35.457L37.5714 34.7688L37.5687 34.7717L38.2969 35.457ZM39.1172 34.8809L39.5087 35.801L41.6186 34.9032L39.5251 33.9679L39.1172 34.8809ZM38.2969 34.3145L39.004 33.6073L38.9926 33.5959L38.9808 33.5849L38.2969 34.3145ZM37.9941 33.9727L37.1804 34.5539L37.1872 34.5634L37.1941 34.5727L37.9941 33.9727ZM37.7305 33.5234L36.8225 33.9425L36.8257 33.9494L36.8289 33.9562L37.7305 33.5234ZM37.4766 28.7969H38.4766V27.7969H37.4766V28.7969ZM34.6836 28.7969H33.6836V29.7969H34.6836V28.7969ZM34.6836 26.0039V25.0039H33.6836V26.0039H34.6836ZM38.5605 26.2188L38.1709 27.1397L38.1815 27.1442L38.1922 27.1484L38.5605 26.2188ZM39.459 26.8047L38.7519 27.5118L38.7609 27.5209L38.7702 27.5297L39.459 26.8047ZM40.0742 27.6934L39.1569 28.0915L39.1597 28.0979L40.0742 27.6934ZM40.2988 32.2441H39.2988V32.2719L39.3004 32.2996L40.2988 32.2441ZM40.4355 32.8691L39.5164 33.2631L39.5213 33.2745L39.5265 33.2858L40.4355 32.8691ZM40.7676 33.2988L40.1114 34.0534L40.1209 34.0617L40.1307 34.0698L40.7676 33.2988ZM42.9062 33.4844H43.9062V32.4844H42.9062V33.4844ZM42.9062 35.2773H41.4219V37.2773H42.9062V35.2773ZM41.3313 35.2815C40.9762 35.3137 40.6333 35.4194 40.3216 35.6112L41.3698 37.3145C41.3966 37.298 41.4379 37.28 41.5124 37.2732L41.3313 35.2815ZM40.3088 35.6192C40.1652 35.7106 40.0374 35.8179 39.9238 35.9316L41.338 37.3458C41.3676 37.3162 41.383 37.3063 41.3826 37.3066L40.3088 35.6192ZM39.9238 35.9316C39.7656 36.0897 39.6487 36.2693 39.5607 36.4454L41.3495 37.3398C41.3571 37.3246 41.3611 37.3189 41.3603 37.3202C41.3594 37.3215 41.3525 37.3313 41.338 37.3458L39.9238 35.9316ZM39.5727 36.422C39.4713 36.6122 39.4026 36.8138 39.3553 37.0125L41.3009 37.4758C41.3187 37.401 41.3347 37.3683 41.3374 37.3632L39.5727 36.422ZM39.3458 37.057C39.3022 37.2857 39.2911 37.523 39.2995 37.7583L41.2982 37.687C41.2936 37.5577 41.3019 37.476 41.3105 37.4313L39.3458 37.057ZM39.2988 37.7227V41.1992H41.2988V37.7227H39.2988ZM39.2988 41.1992C39.2988 41.4613 39.2482 41.685 39.1565 41.8837L40.9724 42.7218C41.1932 42.2434 41.2988 41.7315 41.2988 41.1992H39.2988ZM39.1535 41.8902C39.0475 42.1243 38.9125 42.3127 38.7507 42.4664L40.1282 43.9164C40.4872 43.5754 40.7689 43.1713 40.9754 42.7152L39.1535 41.8902ZM38.7414 42.4754C38.5742 42.6384 38.3791 42.7676 38.1479 42.8635L38.9146 44.7107C39.3736 44.5202 39.7839 44.2523 40.1376 43.9074L38.7414 42.4754ZM38.1416 42.8661C37.9253 42.9577 37.7062 43.002 37.4766 43.002V45.002C37.9761 45.002 38.4601 44.903 38.9209 44.7081L38.1416 42.8661ZM37.4766 43.002H34.6836V45.002H37.4766V43.002ZM35.6836 44.002V41.1992H33.6836V44.002H35.6836ZM34.6836 42.1992H37.4766V40.1992H34.6836V42.1992ZM38.4766 41.1992V37.7227H36.4766V41.1992H38.4766ZM38.4766 37.7227C38.4766 37.4957 38.4951 37.3088 38.5255 37.1571L36.5643 36.7648C36.5035 37.0688 36.4766 37.3897 36.4766 37.7227H38.4766ZM38.5265 37.1518C38.5612 36.9735 38.6044 36.8353 38.6496 36.7299L36.8113 35.942C36.7002 36.2012 36.6198 36.4796 36.5633 36.7701L38.5265 37.1518ZM38.6545 36.7183C38.7108 36.5821 38.7676 36.4786 38.8204 36.4012L37.1679 35.2746C37.0254 35.4836 36.9063 35.7122 36.8065 35.9536L38.6545 36.7183ZM38.8204 36.4012C38.8926 36.2953 38.9613 36.2102 39.0251 36.1424L37.5687 34.7717C37.4241 34.9253 37.291 35.094 37.1679 35.2746L38.8204 36.4012ZM39.0223 36.1453C39.174 35.9854 39.3353 35.8748 39.5087 35.801L38.7256 33.9607C38.2871 34.1473 37.9015 34.4208 37.5714 34.7688L39.0223 36.1453ZM39.5251 33.9679C39.3325 33.8818 39.16 33.7634 39.004 33.6073L37.5898 35.0216C37.9155 35.3473 38.2899 35.6065 38.7092 35.7939L39.5251 33.9679ZM38.9808 33.5849C38.9244 33.532 38.8617 33.4627 38.7941 33.3727L37.1941 34.5727C37.3219 34.743 37.461 34.9016 37.6129 35.044L38.9808 33.5849ZM38.8079 33.3914C38.7461 33.3049 38.687 33.2053 38.632 33.0907L36.8289 33.9562C36.9302 34.167 37.0469 34.367 37.1804 34.5539L38.8079 33.3914ZM38.6384 33.1044C38.5927 33.0053 38.5521 32.8873 38.5204 32.7465L36.5695 33.1871C36.6288 33.45 36.712 33.703 36.8225 33.9425L38.6384 33.1044ZM38.5204 32.7465C38.4935 32.6276 38.4766 32.4813 38.4766 32.3027H36.4766C36.4766 32.6059 36.5052 32.9023 36.5695 33.1871L38.5204 32.7465ZM38.4766 32.3027V28.7969H36.4766V32.3027H38.4766ZM37.4766 27.7969H34.6836V29.7969H37.4766V27.7969ZM35.6836 28.7969V26.0039H33.6836V28.7969H35.6836ZM34.6836 27.0039H37.4766V25.0039H34.6836V27.0039ZM37.4766 27.0039C37.7329 27.0039 37.9612 27.051 38.1709 27.1397L38.9502 25.2978C38.4828 25.1001 37.9884 25.0039 37.4766 25.0039V27.0039ZM38.1922 27.1484C38.4147 27.2366 38.5978 27.3577 38.7519 27.5118L40.1661 26.0976C39.8124 25.7439 39.3965 25.4743 38.9289 25.2891L38.1922 27.1484ZM38.7702 27.5297C38.9287 27.6802 39.058 27.8637 39.1569 28.0915L40.9916 27.2953C40.7909 26.8329 40.5101 26.4239 40.1477 26.0797L38.7702 27.5297ZM39.1597 28.0979C39.249 28.2999 39.2988 28.5288 39.2988 28.7969H41.2988C41.2988 28.2707 41.1989 27.7639 40.9888 27.2889L39.1597 28.0979ZM39.2988 28.7969V32.2441H41.2988V28.7969H39.2988ZM39.3004 32.2996C39.3187 32.6297 39.3847 32.9558 39.5164 33.2631L41.3547 32.4752C41.3301 32.4179 41.305 32.3274 41.2973 32.1887L39.3004 32.2996ZM39.5265 33.2858C39.6659 33.5899 39.8708 33.8442 40.1114 34.0534L41.4238 32.5442C41.3649 32.493 41.3485 32.4609 41.3446 32.4525L39.5265 33.2858ZM40.1307 34.0698C40.5277 34.3977 41.0098 34.4844 41.4219 34.4844V32.4844C41.3859 32.4844 41.3595 32.4824 41.3415 32.4802C41.3235 32.478 41.3158 32.4758 41.3163 32.4759C41.317 32.4761 41.3269 32.479 41.3431 32.4872C41.3596 32.4955 41.3811 32.5086 41.4045 32.5279L40.1307 34.0698ZM41.4219 34.4844H42.9062V32.4844H41.4219V34.4844ZM41.9062 33.4844V36.2773H43.9062V33.4844H41.9062Z" fill="#FFE6C1" mask="url(#path-2-outside-1_8_5950)"/>
</g>
<defs>
<clipPath id="clip0_8_5950">
<rect width="44" height="44" fill="white"/>
</clipPath>
</defs>
</svg>
