<svg width="17" height="17" viewBox="0 0 17 17" fill="none" xmlns="http://www.w3.org/2000/svg">
<path d="M6.51716 13.0328L6.8 13.3157L7.08284 13.0328L14.7328 5.38284L15.0147 5.101L14.7338 4.81816L13.5353 3.61116L13.2525 3.32631L12.9687 3.61016L6.79961 9.77921L4.03095 7.01826L3.74811 6.73621L3.46566 7.01866L2.26716 8.21716L1.98431 8.5L2.26716 8.78284L6.51716 13.0328ZM0.4 8.5C0.4 4.02891 4.02891 0.4 8.5 0.4C12.9711 0.4 16.6 4.02891 16.6 8.5C16.6 12.9711 12.9711 16.6 8.5 16.6C4.02891 16.6 0.4 12.9711 0.4 8.5Z" fill="#4CB228" stroke="black" stroke-width="0.8"/>
</svg>
